<svg id="Layer_1" version="1.1" xmlns="http://www.w3.org/2000/svg" xmlns:xlink="http://www.w3.org/1999/xlink" x="0px" y="0px" width="100px" height="100px" viewBox="0 0 100 100" enable-background="new 0 0 100 100" xml:space="preserve" class="head-btn__open">
   <g>
      <path fill="#5f5f5f" d="M75.157,32.733c0,1.398-1.133,2.532-2.532,2.532H27.433c-1.398,0-2.532-1.133-2.532-2.532l0,0                    c0-1.398,1.133-2.532,2.532-2.532h45.192C74.023,30.202,75.157,31.335,75.157,32.733L75.157,32.733z"></path>
      <path fill="#5f5f5f" d="M75.157,49.084c0,1.398-1.133,2.532-2.532,2.532H27.433c-1.398,0-2.532-1.133-2.532-2.532l0,0                    c0-1.398,1.133-2.532,2.532-2.532h45.192C74.023,46.552,75.157,47.686,75.157,49.084L75.157,49.084z"></path>
      <path fill="#5f5f5f" d="M75.157,65.434c0,1.398-1.133,2.532-2.532,2.532H27.433c-1.398,0-2.532-1.133-2.532-2.532l0,0                    c0-1.398,1.133-2.532,2.532-2.532h45.192C74.023,62.903,75.157,64.036,75.157,65.434L75.157,65.434z"></path>
      <g>
         <g>
            <path fill="#5f5f5f" d="M50.029,0C22.399,0,0,22.399,0,50.029s22.399,50.029,50.029,50.029s50.029-22.399,50.029-50.029                        S77.659,0,50.029,0z M50.029,95.078c-24.88,0-45.049-20.169-45.049-45.049S25.149,4.98,50.029,4.98s45.049,20.169,45.049,45.049                        S74.909,95.078,50.029,95.078z"></path>
         </g>
      </g>
   </g>
</svg>
