<?xml version="1.0" encoding="UTF-8" standalone="no"?>
<svg
   width="98"
   height="96"
   version="1.1"
   id="svg239"
   sodipodi:docname="nostr.svg"
   inkscape:version="1.2.2 (b0a8486541, 2022-12-01)"
   xmlns:inkscape="http://www.inkscape.org/namespaces/inkscape"
   xmlns:sodipodi="http://sodipodi.sourceforge.net/DTD/sodipodi-0.dtd"
   xmlns="http://www.w3.org/2000/svg"
   xmlns:svg="http://www.w3.org/2000/svg">
  <defs
     id="defs243">
    <inkscape:path-effect
       effect="powerclip"
       id="path-effect1427"
       is_visible="true"
       lpeversion="1"
       inverse="true"
       flatten="false"
       hide_clip="false"
       message="Use fill-rule evenodd on &lt;b&gt;fill and stroke&lt;/b&gt; dialog if no flatten result after convert clip to paths." />
    <clipPath
       clipPathUnits="userSpaceOnUse"
       id="clipPath1423">
      <path
         d="m 69.986845,42.683141 c 1.338994,9.2757 -8.262298,11.238379 -13.786087,11.066849 -0.354669,-0.01105 -0.688938,0.161612 -0.898449,0.447984 -0.57139,0.781128 -1.484828,1.791262 -2.189995,1.791262 -0.791945,0 -1.504664,1.523034 -1.829692,2.470507 -0.03415,0.09952 0.06368,0.191253 0.163753,0.158795 8.748151,-2.840502 12.180894,-3.814799 13.65975,-3.540936 1.193837,0.221005 3.42677,4.217815 4.393967,6.188609 -2.40424,0.138171 -3.205653,-2.016888 -3.758337,-2.403676 -0.442236,-0.309363 -0.608018,1.105141 -0.63563,1.851105 -0.525072,-0.276229 -1.188314,-0.663017 -1.24365,-1.851105 -0.05522,-1.187976 -0.663242,-0.884023 -1.132978,-0.8288 -0.469849,0.05522 -7.682679,2.375952 -8.760434,2.679905 -1.077755,0.303953 -2.321404,0.718353 -3.343823,1.436593 -1.713498,0.828913 -2.818865,0.248731 -3.122817,-1.160364 -0.243208,-1.12723 1.335726,-4.595362 2.155509,-6.188609 -1.013291,0.377547 -3.117295,1.143797 -3.426771,1.187976 -0.300122,0.04294 -4.107595,2.98228 -6.143642,4.579246 -0.118786,0.0932 -0.195197,0.229683 -0.222583,0.378109 -0.325705,1.769962 -1.36548,2.265394 -3.16801,3.192918 -1.450455,0.746416 -6.516455,8.531314 -9.121358,12.733915 -0.180118,0.290542 -0.444479,0.513914 -0.728338,0.704378 -1.654612,1.110777 -3.339755,3.937532 -4.023227,5.321043 -0.972764,-2.807031 0.294779,-5.221641 1.050143,-6.078165 -0.331621,-0.287274 -1.096204,-0.119688 -1.437033,0 0.939595,-3.232475 4.228207,-3.232475 4.11766,-3.232475 0.607985,-0.524959 7.737913,-10.719619 7.903695,-11.189241 0.164543,-0.465905 -0.106163,-2.64463 3.477374,-3.839143 0.05692,-0.01905 0.113376,-0.04496 0.163754,-0.07732 2.791816,-1.794417 4.886129,-4.686988 5.589155,-5.919143 -3.727343,-0.25628 -7.995649,-2.334365 -10.227343,-3.669076 -0.481119,-0.287725 -0.991314,-0.538146 -1.548392,-0.601145 -3.055637,-0.345878 -6.115162,1.608799 -7.347982,2.723069 -0.508493,-0.707196 0.06448,-2.762739 0.414524,-3.702099 -1.23806,-0.176826 -3.058308,1.620859 -3.813672,2.541735 -0.818014,-1.281856 -0.101325,-3.573169 0.359255,-4.558622 -1.636016,0.04429 -2.745113,0.792059 -3.09516,1.160477 1.354129,-10.084214 11.711946,-7.151409 11.827915,-7.017521 -0.552682,-0.574659 -0.506588,-1.326146 -0.414512,-1.6301 6.273247,0.165783 9.202558,-0.884022 11.054113,-1.961551 14.591558,-8.150161 20.878554,-3.149528 23.199959,-1.892467 2.321291,1.257061 6.535726,1.768158 9.451287,0.607794 3.481995,-1.574764 2.957824,-5.63401 2.252206,-7.183304 -0.773688,-1.699073 -5.140155,-4.047502 -6.687758,-7.017453 -1.54749,-2.969939 -0.199029,-6.581604 1.59381,-7.085 1.708088,-0.479629 2.927958,0.07836 3.864161,0.92397 0.624248,0.56375 2.37674,0.96698 3.109068,1.229438 0.732328,0.262468 1.948254,0.607816 1.879168,0.815027 -0.06909,0.207211 -1.241508,0.179554 -1.423182,0.179554 -0.373152,0 -0.815275,0.05525 -0.373152,0.262469 0.518536,0.210265 1.30124,0.515874 1.675969,0.717055 0.04869,0.02615 0.03865,0.09426 -0.01476,0.108621 -2.543086,0.684408 -4.813776,-0.727819 -6.497407,0.901064 -1.713386,1.657666 1.934503,2.928545 3.813783,4.917753 1.879168,1.989254 3.813671,4.365205 2.266069,9.780238 -1.198119,4.192233 -6.219488,7.756498 -8.813178,9.150716 -0.149103,0.08024 -0.230923,0.251546 -0.206692,0.419133 z"
         fill="#7b50c2"
         id="path1425"
         style="display:none;stroke-width:0.1127" />
      <path
         id="lpe_path-effect1427"
         style="stroke-width:0.1127"
         class="powerclip"
         d="M -5,-5 H 103 V 101 H -5 Z m 74.986845,47.683141 3e-6,-8e-6 c -0.02423,-0.167587 0.05759,-0.338893 0.206692,-0.419133 2.59369,-1.394218 7.615059,-4.958483 8.813178,-9.150716 1.547602,-5.415033 -0.386901,-7.790984 -2.266069,-9.780238 -1.87928,-1.989208 -5.527169,-3.260087 -3.813783,-4.917753 1.683631,-1.628883 3.954321,-0.216656 6.497407,-0.901064 0.05341,-0.01436 0.06345,-0.08247 0.01476,-0.108621 -0.374729,-0.201181 -1.157433,-0.50679 -1.675969,-0.717055 -0.442123,-0.207219 0,-0.262469 0.373152,-0.262469 0.181674,0 1.354092,0.02766 1.423182,-0.179554 0.06909,-0.207211 -1.14684,-0.552559 -1.879168,-0.815027 -0.732328,-0.262458 -2.48482,-0.665688 -3.109068,-1.229438 -0.936203,-0.84561 -2.156073,-1.403599 -3.864161,-0.92397 -1.792839,0.503396 -3.1413,4.115061 -1.59381,7.085 1.547603,2.969951 5.91407,5.31838 6.687758,7.017453 0.705618,1.549294 1.229789,5.60854 -2.252206,7.183304 -2.915561,1.160364 -7.129996,0.649267 -9.451287,-0.607794 -2.321405,-1.257061 -8.608401,-6.257694 -23.199959,1.892467 -1.851555,1.077529 -4.780866,2.127334 -11.054113,1.961551 -0.09208,0.303954 -0.13817,1.055441 0.414512,1.6301 -0.115969,-0.133888 -10.473786,-3.066693 -11.827915,7.017521 0.350047,-0.368418 1.459144,-1.116187 3.09516,-1.160477 -0.46058,0.985453 -1.177269,3.276766 -0.359255,4.558622 0.755364,-0.920876 2.575612,-2.718561 3.813672,-2.541735 -0.350044,0.93936 -0.923017,2.994903 -0.414524,3.702099 1.23282,-1.11427 4.292345,-3.068947 7.347982,-2.723069 0.557078,0.063 1.067273,0.31342 1.548392,0.601145 2.231694,1.334711 6.5,3.412796 10.227343,3.669076 -0.703026,1.232155 -2.797339,4.124726 -5.589155,5.919143 -0.05038,0.03236 -0.106834,0.05827 -0.163754,0.07732 -3.583537,1.194513 -3.312831,3.373238 -3.477374,3.839143 -0.165782,0.469622 -7.29571,10.664282 -7.903695,11.189241 0.110547,0 -3.178065,0 -4.11766,3.232475 0.340829,-0.119688 1.105412,-0.287274 1.437033,0 -0.755364,0.856524 -2.022907,3.271134 -1.050143,6.078165 0.683472,-1.383511 2.368615,-4.210266 4.023227,-5.321043 0.283859,-0.190464 0.54822,-0.413836 0.728338,-0.704378 2.604903,-4.202601 7.670903,-11.987499 9.121358,-12.733915 1.80253,-0.927524 2.842305,-1.422956 3.16801,-3.192918 0.02739,-0.148426 0.103797,-0.284909 0.222583,-0.378109 2.036047,-1.596966 5.84352,-4.536306 6.143642,-4.579246 0.309476,-0.04418 2.41348,-0.810429 3.426771,-1.187976 -0.819783,1.593247 -2.398717,5.061379 -2.155509,6.188609 0.303952,1.409095 1.409319,1.989277 3.122817,1.160364 1.022419,-0.71824 2.266068,-1.13264 3.343823,-1.436593 1.077755,-0.303953 8.290585,-2.624685 8.760434,-2.679905 0.469736,-0.05522 1.077758,-0.359176 1.132978,0.8288 0.05534,1.188088 0.718578,1.574876 1.24365,1.851105 0.02761,-0.745964 0.193394,-2.160468 0.63563,-1.851105 0.552684,0.386788 1.354097,2.541847 3.758337,2.403676 -0.967197,-1.970794 -3.20013,-5.967604 -4.393967,-6.188609 -1.478856,-0.273863 -4.911599,0.700434 -13.65975,3.540936 -0.100073,0.03246 -0.197903,-0.05927 -0.163753,-0.158795 0.325028,-0.947473 1.037747,-2.470507 1.829692,-2.470507 0.705167,0 1.618605,-1.010134 2.189995,-1.791262 0.209511,-0.286372 0.54378,-0.459034 0.898449,-0.447984 5.523789,0.17153 15.125081,-1.791149 13.786087,-11.066849 z" />
    </clipPath>
  </defs>
  <sodipodi:namedview
     id="namedview241"
     pagecolor="#ffffff"
     bordercolor="#000000"
     borderopacity="0.25"
     inkscape:showpageshadow="2"
     inkscape:pageopacity="0.0"
     inkscape:pagecheckerboard="0"
     inkscape:deskcolor="#d1d1d1"
     showgrid="false"
     inkscape:zoom="3.1967119"
     inkscape:cx="9.5410537"
     inkscape:cy="78.987412"
     inkscape:window-width="1854"
     inkscape:window-height="1011"
     inkscape:window-x="66"
     inkscape:window-y="32"
     inkscape:window-maximized="1"
     inkscape:current-layer="svg239" />
  <path
     style="fill:#ffffff;fill-opacity:1;stroke-width:4.40539"
     id="path509"
     clip-path="url(#clipPath1423)"
     inkscape:path-effect="#path-effect1427"
     sodipodi:type="arc"
     sodipodi:cx="49"
     sodipodi:cy="48"
     sodipodi:rx="49"
     sodipodi:ry="48"
     d="M 98,48 A 49,48 0 0 1 49,96 49,48 0 0 1 0,48 49,48 0 0 1 49,0 49,48 0 0 1 98,48 Z" />
</svg>
